<?xml version="1.0" encoding="utf-8"?>
<!-- Generator: Adobe Illustrator 25.4.1, SVG Export Plug-In . SVG Version: 6.00 Build 0)  -->
<svg version="1.1" id="Layer_1" xmlns="http://www.w3.org/2000/svg" xmlns:xlink="http://www.w3.org/1999/xlink" x="0px" y="0px"
	 viewBox="0 0 715.5 718.1" style="enable-background:new 0 0 715.5 718.1;" xml:space="preserve">
<style type="text/css">
	.st0{fill:#F6F3EC;}
</style>
<g>
	<path class="st0" d="M656.4,232.3c-14.3-33.9-34.2-64.7-59-91.9c8.8-11.1,15.8-23.1,20.9-36c2.5-6.6,4.2-13.4,5.2-20.5
		c1-7.1,0.8-14.1-0.4-20.8c-1.2-6.7-3.8-12.7-7.7-18c-3.9-5.3-9.4-9.5-16.7-12.6c-6.7-2.8-13.6-4.3-20.8-4.3
		c-7.2,0-14.4,0.9-21.7,2.6c-7.2,1.7-14.3,4-21.2,6.9c-6.9,2.9-13.5,5.6-19.6,8.1c-11.3,4.8-22.3,10.1-33.2,15.9
		c0.4-0.4,0.9-0.8,1.4-1.2C444.4,44.2,403,36,360.2,36c-43.4,0-85.5,8.5-125.1,25.3c-38.3,16.2-72.7,39.4-102.2,68.9
		C103.4,159.7,80.2,194,64,232.3C47.2,272,38.7,314.1,38.7,357.5c0,43.4,8.5,85.5,25.3,125.1c16.2,38.3,39.4,72.7,68.9,102.2
		c17.9,17.9,37.5,33.4,58.7,46.5c-2,4.1-3.3,8.3-4,12.6c-0.8,5.1-0.4,10,1.2,14.6c1.7,4.6,5.1,8.3,10.4,11.1
		c6.1,3.4,12.8,5.5,20,6.2c7.2,0.7,14.2,0.8,20.8,0.2c12.1-1.1,23.7-4,34.6-8.6c27.7,7.6,56.3,11.5,85.5,11.5
		c43.4,0,85.5-8.5,125.1-25.3c38.3-16.2,72.7-39.4,102.2-68.9c29.5-29.5,52.7-63.9,68.9-102.2c16.8-39.6,25.3-81.7,25.3-125.1
		C681.7,314.1,673.2,272,656.4,232.3z M524.4,54.4c6.8-3.1,13.7-5.8,20.8-8.1c7.1-2.3,14.2-3.9,21.5-4.7c7.2-0.9,14.2-0.4,20.8,1.3
		c8.6,2.3,14.6,6.2,18.1,11.8c3.5,5.6,5.2,11.9,5.2,19.1c0,7.1-1.2,14.4-3.7,21.8c-2.5,7.4-5.4,14-8.7,19.7
		c-7.5,12.8-16.4,24.5-26.7,34.9c-10.3,10.4-21.5,19.8-33.7,28c-12.2,8.3-24.7,15.6-37.5,22c-12.8,6.4-25.8,12.6-39.2,18.6
		c-15.8,7.1-31.7,14.1-47.7,20.8c-16,6.7-32.1,13.3-48.5,19.9c-17.5,6.8-34.9,13.6-52.3,20.1c-17.4,6.6-34.8,13.1-52.3,19.7
		c6.1-10,12.4-19.8,19-29.5c6.5-9.7,13.3-19.1,20.2-28.3c18.3-24.8,38-48.3,59.1-70.4c21.1-22.1,44-42.2,68.7-60.2l0.8-1.3
		c23.9-17.7,49.6-33.1,77.1-46.2C511.3,60.5,517.6,57.5,524.4,54.4z M360.2,48.6c38.5,0,75.4,7.1,109.5,20
		c-12.4,7.1-24.5,14.7-36.3,23c-26.9,18.6-51.7,39.3-74.4,62.3c-22.6,23-43.9,47.5-63.9,73.4c-9.4,12.3-18.5,24.8-27.3,37.7
		c-8.7,12.7-16.7,25.9-24.2,39.5c-13.5,5.1-27,10.4-40.4,15.8c-13.5,5.4-26.9,11-40.2,16.7c-30.3,12.8-59.8,26.8-88.7,42
		c-7.1,3.7-14.2,7.6-21.2,11.6c-1.2-10.9-1.8-21.9-1.8-33C51.3,187.1,189.9,48.6,360.2,48.6z M54.8,403.5
		c7.4-4.3,14.9-8.4,22.5-12.4c31.1-16.4,62.9-31.5,95.4-45.2c10.5-4.6,21.2-9,31.9-13.3c10.7-4.3,21.5-8.4,32.3-12.4
		c-6.9,14.6-12.8,29.3-17.7,44.3c-4.9,15-8.4,30.6-10.6,46.9c-1.9,15.1-2.2,30.7-0.8,46.7c1.4,16,6.7,30.4,15.8,43.2
		c4.7,6.6,10.2,11.9,16.5,16.1c6.2,4.1,12.9,7.3,20,9.4c7.1,2.1,14.4,3.3,22.1,3.4c7.6,0.1,15.2-0.5,22.7-1.9
		c17.2-3.4,33.7-9.8,49.4-19.3c15.7-9.4,30.6-19.3,44.8-29.5l2.5-2.6c-3.1,7.4-6.2,14.8-9.4,22.3c-3.2,7.4-6.5,14.8-9.8,22.3
		l-12.5,3.9c-15,4.6-30.3,9.5-45.8,14.8c-15.6,5.3-30.6,11.4-45.2,18.4c-14.6,7-28.5,15.1-41.7,24.4c-13.2,9.3-25.1,20.3-35.6,33.2
		c-1.1,1.3-2.2,2.7-3.2,4.2C122.5,573.5,68.5,495,54.8,403.5z M237,662.9c-7.9,1-15.6,0.6-23.1-1.1c-2.5-0.6-4.8-1.2-6.9-1.9
		c-2.1-0.7-4.1-1.8-6-3.2l-0.8-0.9c-0.2-0.2-0.4-0.5-0.5-0.6c0.1,0.2,0.1,0.3,0.1,0.4c0,0.1-0.1,0.1-0.2-0.2c-0.1-0.3-0.4-1.3-0.6-3
		c-0.3-1.1-0.4-2.9-0.4-5.1c0.3-2.9,1-5.6,2.3-8.3c1.2-2.7,2.6-5.2,4-7.5c8.9-13.4,20.2-25,33.9-34.7c13.7-9.7,27.6-18,41.4-24.8
		c14.2-6.8,28.5-12.8,42.9-17.8c14.4-5,29.2-9.8,44.2-14.3l5-1.3c-6.1,12.8-12.8,25.5-20,37.9c-7.2,12.4-15.4,24-24.6,34.7
		c-9.2,10.7-19.4,20.3-30.6,28.7c-11.2,8.4-23.8,14.8-37.7,19.1l0.4-0.9C252.4,660.3,244.9,661.9,237,662.9z M360.2,666.3
		c-23.4,0-46.1-2.6-68-7.6c5.3-3,10.4-6.3,15.4-10c10-7.3,19.2-15.6,27.7-25c8.5-9.4,16-19.3,22.7-29.5c6.4-9.7,12.2-19.7,17.5-30
		c5.3-10.3,10.3-20.8,15-31.7c13.3-4,26.4-8.3,39.4-13.1c12.9-4.7,25.6-9.9,38.1-15.6c8.6-4,16.9-8.3,25-12.8
		c8.1-4.6,16.1-9.3,24.2-14.1c1.9-1.1,4.9-3.1,8.7-5.8c3.9-2.7,8-5.6,12.3-8.8c4.3-3.1,8.3-6.1,12.1-9c3.7-2.8,6.6-5,8.5-6.4
		c4.2-3.1,8.1-6.6,11.7-10.3c3.6-3.7,7.4-7.3,11.2-10.7c1.1-0.9,1.6-1.9,1.5-3c-0.1-1.1-0.6-2.1-1.5-3c-0.8-0.9-1.8-1.4-2.9-1.5
		c-1.1-0.1-2.2,0.2-3.3,1.1c-3.3,3.1-7.8,6.8-13.5,11.1c-5.7,4.3-11.7,8.7-17.9,13.3c-6.2,4.6-12.4,8.9-18.3,12.8
		c-6,4-10.9,7.1-14.8,9.4c-7.8,4.6-15.6,8.9-23.5,13.1c-7.9,4.1-15.9,8.2-24,12.2c-10.8,5.1-21.8,9.7-32.9,13.7
		c-11.1,4-22.4,7.9-33.7,11.6l18.7-45l3.7-10.3c3.1-2.6,6-5.1,8.7-7.7c2.8-2.6,5.7-5.3,8.7-8.1c6.4-6,12.6-12.3,18.5-18.8
		c6-6.6,11.3-13.7,16-21.4c3.9-6.8,6.7-14,8.5-21.4c1.8-7.4,2-15.1,0.6-23.1c-0.3-1.7-1.2-3-2.9-3.9c-1.7-0.9-3.2-1-4.6-0.4
		c-7.8,2-14.4,5.5-19.8,10.5c-5.4,5-10.2,10.8-14.4,17.6c-4.2,6.7-7.7,13.7-10.6,21c-2.9,7.3-5.8,14.3-8.5,21.2l-11.2,27
		c-12.2,10-24.9,19.4-38.1,28.3c-13.2,8.8-26.9,16.7-41,23.5c-6.9,3.4-14.3,6.3-22.1,8.6c-7.8,2.3-15.6,3.6-23.5,4.1
		c-7.9,0.4-15.7-0.4-23.3-2.6c-7.6-2.1-14.7-6.1-21-11.8c-5.8-5.1-10.3-11-13.5-17.6c-3.2-6.6-5.5-13.6-6.9-21
		c-1.4-7.4-2.1-15-2.1-22.7c0-7.7,0.4-15.1,1.2-22.3c1.9-18.8,5.9-37,11.9-54.4c6-17.4,13.4-34.4,22.3-50.9
		c22.5-8.6,45-17.1,67.5-25.5c22.5-8.4,45-17.2,67.5-26.3c32.8-13.1,65.3-27.3,97.5-42.4c13.9-6.6,27.4-13.5,40.6-20.8
		c13.2-7.3,25.8-15.8,37.7-25.5c9.3-7.3,18-15.4,26.1-24.4c49.7,54.8,80,127.5,80,207.2C669.1,527.8,530.5,666.3,360.2,666.3z
		 M429.6,434.5c1.7-4.3,3.4-8.6,5.2-12.8c1.8-4.3,3.7-8.6,5.6-12.8c3.1-7.1,6.7-14.1,11-21c4.3-6.8,9.9-12.1,16.9-15.8l0.4,0.4
		c-0.3,7.4-2.2,14.4-5.6,21c-3.5,6.6-7.6,12.7-12.3,18.4c-3.3,4-6.7,7.9-10.2,11.6C437.2,427.1,433.5,430.8,429.6,434.5z"/>
</g>
</svg>
