<?xml version="1.0" encoding="utf-8"?>
<!-- Generator: Adobe Illustrator 25.4.1, SVG Export Plug-In . SVG Version: 6.00 Build 0)  -->
<svg version="1.1" id="Layer_1" xmlns="http://www.w3.org/2000/svg" xmlns:xlink="http://www.w3.org/1999/xlink" x="0px" y="0px"
	 viewBox="0 0 705.4 109.4" style="enable-background:new 0 0 705.4 109.4;" xml:space="preserve">
<style type="text/css">
	.st0{fill:#F6F3EC;}
</style>
<g>
	<g>
		<path class="st0" d="M55.3,83.6c-2.2,4.1-6.9,5.3-9.8,5.3c-3.4,0-6.7-0.6-9.1-3.7c-2.3-3-2.8-7-2.8-9.4V46.3c0-3.4,0.2-6.7,2.6-10
			c3-4.2,7.9-5,10.8-5c8,0,13.4,4,13.4,13.3v2.6h-6v-2.5c0-2.4-0.8-7.5-7.4-7.5s-7.4,5.9-7.4,9.4v27.4c0,5.7,1.9,9.2,7.3,9.2
			c5.4,0,7.5-4.2,7.5-10.3v-9h-7.1v-5.2h13.1v29.5h-3.4L55.3,83.6z"/>
		<path class="st0" d="M124.2,88.1l-2.8-12.5h-12.6L106,88.1h-5.8l12.2-56h5.4l12.2,56H124.2z M114.9,44.1l-5.4,26.4h11L114.9,44.1z
			"/>
		<path class="st0" d="M187.4,45.5c0-1.4-0.2-4.1-1.7-6.1c-1-1.1-2.5-2.3-5.4-2.3c-1.4,0-3.4,0.3-4.9,1.8c-1.9,2-2.1,4.6-2.1,6.8
			c0,1.7,0.1,4.6,1.4,6.7c1.1,1.6,3,2.6,4.4,3l5.1,1.8c2.3,0.8,5.3,2.2,7.1,4.7c2,2.7,2.2,5.8,2.2,9.3v2c0,5.5-1.5,9.6-3.7,12
			c-2,2.1-5.5,3.5-10,3.5c-5.5,0-9-2-10.8-4.4c-2.4-3.2-2.4-8.6-2.4-9.3v-2h6v1.6c0,1.5,0.2,4.2,1.6,5.9c1.8,2.1,4.2,2.3,5.5,2.3
			c3.7,0,5.3-1.4,6.2-2.5c1.5-1.9,1.6-4.6,1.6-6.5v-2.2c0-2.2-0.2-5-1.6-6.6c-1.4-1.8-3.6-2.7-4.6-3l-6.1-2.2c-2.7-1-5.4-2.5-7-6
			c-1-2.5-1.1-5.2-1.1-7.9v-1.7c0-4.5,1.7-7.8,4-10c2.5-2.4,5.7-3.2,9.2-3.2c7.7,0,12.8,5,12.8,13.9v1.9h-6V45.5z"/>
		<path class="st0" d="M255.6,32.1v5.5h-10.4v50.5h-6V37.6h-10.3v-5.5H255.6z"/>
		<path class="st0" d="M306.3,32.1c6.1,0,14.8,0.9,14.8,13.3v4.4c0,6.2-2.6,10.3-7.7,11.9l9,26.4h-6.2l-8.2-25.2h-6.8v25.2h-6v-56
			H306.3z M301.1,57.7h5.9c4.4,0,8.1-2.6,8.1-7.5v-5.3c0-7-5.4-7.6-8.4-7.6h-5.6V57.7z"/>
		<path class="st0" d="M362.4,46.3c0-4.2,0.3-8.2,4-11.6c2.2-2.2,5.4-3.4,9.4-3.4s7.2,1.2,9.4,3.4c3.7,3.4,4,7.4,4,11.6v27.7
			c0,4.2-0.3,8.2-4,11.6c-2.2,2.2-5.4,3.4-9.4,3.4s-7.2-1.2-9.4-3.4c-3.7-3.4-4-7.4-4-11.6V46.3z M383.2,45c0-2-0.2-4-2.1-5.8
			c-1.1-1.1-3-2-5.4-2s-4.2,0.9-5.4,2c-1.9,1.8-2.1,3.8-2.1,5.8v30.2c0,2,0.2,4,2.1,5.9c1.1,1,3,1.9,5.4,1.9s4.2-0.9,5.4-1.9
			c1.9-1.9,2.1-3.9,2.1-5.9V45z"/>
		<path class="st0" d="M437.7,32.1l15.8,41.7V32.1h6v56h-6l-15.8-40.9v40.9h-6v-56H437.7z"/>
		<path class="st0" d="M502,46.3c0-4.2,0.3-8.2,4-11.6c2.2-2.2,5.4-3.4,9.4-3.4s7.2,1.2,9.4,3.4c3.7,3.4,4,7.4,4,11.6v27.7
			c0,4.2-0.3,8.2-4,11.6c-2.2,2.2-5.4,3.4-9.4,3.4s-7.2-1.2-9.4-3.4c-3.7-3.4-4-7.4-4-11.6V46.3z M522.9,45c0-2-0.2-4-2.1-5.8
			c-1.1-1.1-3-2-5.4-2s-4.2,0.9-5.4,2C508.2,41,508,43,508,45v30.2c0,2,0.2,4,2.1,5.9c1.1,1,3,1.9,5.4,1.9s4.2-0.9,5.4-1.9
			c1.9-1.9,2.1-3.9,2.1-5.9V45z"/>
		<path class="st0" d="M571.4,32.1h6.1l11.8,35h0.2l11.3-35h6.1v56h-6V50.2h-0.2l-10,28.5h-3l-10-28.5h-0.2v37.9h-6V32.1z"/>
		<path class="st0" d="M649.7,32.1h22.5v5.5h-16.5v19.5h14.6v5.2h-14.6v20.2h16.7v5.5h-22.7V32.1z"/>
	</g>
</g>
</svg>
