<?xml version="1.0" encoding="utf-8"?>
<!-- Generator: Adobe Illustrator 25.4.1, SVG Export Plug-In . SVG Version: 6.00 Build 0)  -->
<svg version="1.1" id="Layer_1" xmlns="http://www.w3.org/2000/svg" xmlns:xlink="http://www.w3.org/1999/xlink" x="0px" y="0px"
	 viewBox="0 0 1280 1024" style="enable-background:new 0 0 1280 1024;" xml:space="preserve">
<style type="text/css">
	.st0{fill:#005027;}
</style>
<g>
	<g>
		<path class="st0" d="M343.4,888c-2.2,4.1-6.9,5.3-9.8,5.3c-3.4,0-6.7-0.6-9.1-3.7c-2.3-3-2.8-7-2.8-9.4v-29.5
			c0-3.4,0.2-6.7,2.6-10c3-4.2,7.9-5,10.8-5c8,0,13.4,4,13.4,13.3v2.6h-6v-2.5c0-2.4-0.8-7.5-7.4-7.5s-7.4,5.9-7.4,9.4v27.4
			c0,5.7,1.9,9.2,7.3,9.2c5.4,0,7.5-4.2,7.5-10.3v-9h-7.1V863h13.1v29.5H345L343.4,888z"/>
		<path class="st0" d="M412.3,892.5l-2.8-12.5h-12.6l-2.7,12.5h-5.8l12.2-56h5.4l12.2,56H412.3z M403,848.5l-5.4,26.4h11L403,848.5z
			"/>
		<path class="st0" d="M475.5,850c0-1.4-0.2-4.1-1.7-6.1c-1-1.1-2.5-2.3-5.4-2.3c-1.4,0-3.4,0.3-4.9,1.8c-1.9,2-2.1,4.6-2.1,6.8
			c0,1.7,0.1,4.6,1.4,6.7c1.1,1.6,3,2.6,4.4,3l5.1,1.8c2.3,0.8,5.3,2.2,7.1,4.7c2,2.7,2.2,5.8,2.2,9.3v2c0,5.5-1.5,9.6-3.7,12
			c-2,2.1-5.5,3.5-10,3.5c-5.5,0-9-2-10.8-4.4c-2.4-3.2-2.4-8.6-2.4-9.3v-2h6v1.6c0,1.5,0.2,4.2,1.6,5.9c1.8,2.1,4.2,2.3,5.5,2.3
			c3.7,0,5.3-1.4,6.2-2.5c1.5-1.9,1.6-4.6,1.6-6.5v-2.2c0-2.2-0.2-5-1.6-6.6c-1.4-1.8-3.6-2.7-4.6-3l-6.1-2.2c-2.7-1-5.4-2.5-7-6
			c-1-2.5-1.1-5.2-1.1-7.9v-1.7c0-4.5,1.7-7.8,4-10c2.5-2.4,5.7-3.2,9.2-3.2c7.7,0,12.8,5,12.8,13.9v1.9h-6V850z"/>
		<path class="st0" d="M543.7,836.5v5.5h-10.4v50.5h-6V842H517v-5.5H543.7z"/>
		<path class="st0" d="M594.4,836.5c6.1,0,14.8,0.9,14.8,13.3v4.4c0,6.2-2.6,10.3-7.7,11.9l9,26.4h-6.2l-8.2-25.2h-6.8v25.2h-6v-56
			H594.4z M589.2,862.1h5.9c4.4,0,8.1-2.6,8.1-7.5v-5.3c0-7-5.4-7.6-8.4-7.6h-5.6V862.1z"/>
		<path class="st0" d="M650.4,850.7c0-4.2,0.3-8.2,4-11.6c2.2-2.2,5.4-3.4,9.4-3.4s7.2,1.2,9.4,3.4c3.7,3.4,4,7.4,4,11.6v27.7
			c0,4.2-0.3,8.2-4,11.6c-2.2,2.2-5.4,3.4-9.4,3.4s-7.2-1.2-9.4-3.4c-3.7-3.4-4-7.4-4-11.6V850.7z M671.3,849.4c0-2-0.2-4-2.1-5.8
			c-1.1-1.1-3-2-5.4-2s-4.2,0.9-5.4,2c-1.9,1.8-2.1,3.8-2.1,5.8v30.2c0,2,0.2,4,2.1,5.9c1.1,1,3,1.9,5.4,1.9s4.2-0.9,5.4-1.9
			c1.9-1.9,2.1-3.9,2.1-5.9V849.4z"/>
		<path class="st0" d="M725.8,836.5l15.8,41.7v-41.7h6v56h-6l-15.8-40.9v40.9h-6v-56H725.8z"/>
		<path class="st0" d="M790.1,850.7c0-4.2,0.3-8.2,4-11.6c2.2-2.2,5.4-3.4,9.4-3.4s7.2,1.2,9.4,3.4c3.7,3.4,4,7.4,4,11.6v27.7
			c0,4.2-0.3,8.2-4,11.6c-2.2,2.2-5.4,3.4-9.4,3.4s-7.2-1.2-9.4-3.4c-3.7-3.4-4-7.4-4-11.6V850.7z M811,849.4c0-2-0.2-4-2.1-5.8
			c-1.1-1.1-3-2-5.4-2s-4.2,0.9-5.4,2c-1.9,1.8-2.1,3.8-2.1,5.8v30.2c0,2,0.2,4,2.1,5.9c1.1,1,3,1.9,5.4,1.9s4.2-0.9,5.4-1.9
			c1.9-1.9,2.1-3.9,2.1-5.9V849.4z"/>
		<path class="st0" d="M859.5,836.5h6.1l11.8,35h0.2l11.3-35h6.1v56h-6v-37.9h-0.2l-10,28.5h-3l-10-28.5h-0.2v37.9h-6V836.5z"/>
		<path class="st0" d="M937.8,836.5h22.5v5.5h-16.5v19.5h14.6v5.2h-14.6V887h16.7v5.5h-22.7V836.5z"/>
	</g>
	<path class="st0" d="M937.9,315.2c-14.3-33.9-34.2-64.7-59-91.9c8.8-11.1,15.8-23.1,20.9-36c2.5-6.6,4.2-13.4,5.2-20.5
		c1-7.1,0.8-14.1-0.4-20.8c-1.2-6.7-3.8-12.7-7.7-18c-3.9-5.3-9.4-9.5-16.7-12.6c-6.7-2.8-13.6-4.3-20.8-4.3
		c-7.2,0-14.4,0.9-21.7,2.6c-7.2,1.7-14.3,4-21.2,6.9c-6.9,2.9-13.5,5.6-19.6,8.1c-11.3,4.8-22.3,10.1-33.2,15.9
		c0.4-0.4,0.9-0.8,1.4-1.2c-39.1-16.3-80.6-24.5-123.3-24.5c-43.4,0-85.5,8.5-125.1,25.3c-38.3,16.2-72.7,39.4-102.2,68.9
		c-29.5,29.5-52.7,63.9-68.9,102.2c-16.8,39.6-25.3,81.7-25.3,125.1c0,43.4,8.5,85.5,25.3,125.1c16.2,38.3,39.4,72.7,68.9,102.2
		c17.9,17.9,37.5,33.4,58.7,46.5c-2,4.1-3.3,8.3-4,12.6c-0.8,5.1-0.4,10,1.2,14.6c1.7,4.6,5.1,8.3,10.4,11.1
		c6.1,3.4,12.8,5.5,20,6.2c7.2,0.7,14.2,0.8,20.8,0.2c12.1-1.1,23.7-4,34.6-8.6c27.7,7.6,56.3,11.5,85.5,11.5
		c43.4,0,85.5-8.5,125.1-25.3c38.3-16.2,72.7-39.4,102.2-68.9s52.7-63.9,68.9-102.2c16.8-39.6,25.3-81.7,25.3-125.1
		C963.2,396.9,954.7,354.8,937.9,315.2z M805.9,137.3c6.8-3.1,13.7-5.8,20.8-8.1c7.1-2.3,14.2-3.9,21.5-4.7
		c7.2-0.9,14.2-0.4,20.8,1.3c8.6,2.3,14.6,6.2,18.1,11.8c3.5,5.6,5.2,11.9,5.2,19.1c0,7.1-1.2,14.4-3.7,21.8
		c-2.5,7.4-5.4,14-8.7,19.7c-7.5,12.8-16.4,24.5-26.7,34.9c-10.3,10.4-21.5,19.8-33.7,28c-12.2,8.3-24.7,15.6-37.5,22
		c-12.8,6.4-25.8,12.6-39.2,18.6c-15.8,7.1-31.7,14.1-47.7,20.8c-16,6.7-32.1,13.3-48.5,19.9c-17.5,6.8-34.9,13.6-52.3,20.1
		c-17.4,6.6-34.8,13.1-52.3,19.7c6.1-10,12.4-19.8,19-29.5c6.5-9.7,13.3-19.1,20.2-28.3c18.3-24.8,38-48.3,59.1-70.4
		c21.1-22.1,44-42.2,68.7-60.2l0.8-1.3c23.9-17.7,49.6-33.1,77.1-46.2C792.7,143.4,799.1,140.4,805.9,137.3z M641.7,131.5
		c38.5,0,75.4,7.1,109.5,20c-12.4,7.1-24.5,14.7-36.3,23c-26.9,18.6-51.7,39.3-74.4,62.3c-22.6,23-43.9,47.5-63.9,73.4
		c-9.4,12.3-18.5,24.8-27.3,37.7c-8.7,12.7-16.7,25.9-24.2,39.5c-13.5,5.1-27,10.4-40.4,15.8c-13.5,5.4-26.9,11-40.2,16.7
		c-30.3,12.8-59.8,26.8-88.7,42c-7.1,3.7-14.2,7.6-21.2,11.6c-1.2-10.9-1.8-21.9-1.8-33C332.8,270,471.4,131.5,641.7,131.5z
		 M336.3,486.4c7.4-4.3,14.9-8.4,22.5-12.4c31.1-16.4,62.9-31.5,95.4-45.2c10.5-4.6,21.2-9,31.9-13.3c10.7-4.3,21.5-8.4,32.3-12.4
		c-6.9,14.6-12.8,29.3-17.7,44.3c-4.9,15-8.4,30.6-10.6,46.9c-1.9,15.1-2.2,30.7-0.8,46.7c1.4,16,6.7,30.4,15.8,43.2
		c4.7,6.6,10.2,11.9,16.5,16.1c6.2,4.1,12.9,7.3,20,9.4s14.4,3.3,22.1,3.4c7.6,0.1,15.2-0.5,22.7-1.9c17.2-3.4,33.7-9.8,49.4-19.3
		c15.7-9.4,30.6-19.3,44.8-29.5l2.5-2.6c-3.1,7.4-6.2,14.8-9.4,22.3c-3.2,7.4-6.5,14.8-9.8,22.3l-12.5,3.9
		c-15,4.6-30.3,9.5-45.8,14.8c-15.6,5.3-30.6,11.4-45.2,18.4c-14.6,7-28.5,15.1-41.7,24.4c-13.2,9.3-25.1,20.3-35.6,33.2
		c-1.1,1.3-2.2,2.7-3.2,4.2C404,656.4,350,577.9,336.3,486.4z M518.5,745.8c-7.9,1-15.6,0.6-23.1-1.1c-2.5-0.6-4.8-1.2-6.9-1.9
		c-2.1-0.7-4.1-1.8-6-3.2l-0.8-0.9c-0.2-0.2-0.4-0.5-0.5-0.6c0.1,0.2,0.1,0.3,0.1,0.4c0,0.1-0.1,0.1-0.2-0.2c-0.1-0.3-0.4-1.3-0.6-3
		c-0.3-1.1-0.4-2.9-0.4-5.1c0.3-2.9,1-5.6,2.3-8.3c1.2-2.7,2.6-5.2,4-7.5c8.9-13.4,20.2-25,33.9-34.7c13.7-9.7,27.6-18,41.4-24.8
		c14.2-6.8,28.5-12.8,42.9-17.8c14.4-5,29.2-9.8,44.2-14.3l5-1.3c-6.1,12.8-12.8,25.5-20,37.9c-7.2,12.4-15.4,24-24.6,34.7
		c-9.2,10.7-19.4,20.3-30.6,28.7c-11.2,8.4-23.8,14.8-37.7,19.1l0.4-0.9C533.9,743.2,526.4,744.8,518.5,745.8z M641.7,749.2
		c-23.4,0-46.1-2.6-68-7.6c5.3-3,10.4-6.3,15.4-10c10-7.3,19.2-15.6,27.7-25c8.5-9.4,16-19.3,22.7-29.5c6.4-9.7,12.2-19.7,17.5-30
		c5.3-10.3,10.3-20.8,15-31.7c13.3-4,26.4-8.3,39.4-13.1c12.9-4.7,25.6-9.9,38.1-15.6c8.6-4,16.9-8.3,25-12.8
		c8.1-4.6,16.1-9.3,24.2-14.1c1.9-1.1,4.9-3.1,8.7-5.8c3.9-2.7,8-5.6,12.3-8.8c4.3-3.1,8.3-6.1,12.1-9c3.7-2.8,6.6-5,8.5-6.4
		c4.2-3.1,8.1-6.6,11.7-10.3c3.6-3.7,7.4-7.3,11.2-10.7c1.1-0.9,1.6-1.9,1.5-3c-0.1-1.1-0.6-2.1-1.5-3c-0.8-0.9-1.8-1.4-2.9-1.5
		c-1.1-0.1-2.2,0.2-3.3,1.1c-3.3,3.1-7.8,6.8-13.5,11.1c-5.7,4.3-11.7,8.7-17.9,13.3c-6.2,4.6-12.4,8.9-18.3,12.8
		c-6,4-10.9,7.1-14.8,9.4c-7.8,4.6-15.6,8.9-23.5,13.1c-7.9,4.1-15.9,8.2-24,12.2c-10.8,5.1-21.8,9.7-32.9,13.7
		c-11.1,4-22.4,7.9-33.7,11.6l18.7-45l3.7-10.3c3.1-2.6,6-5.1,8.7-7.7c2.8-2.6,5.7-5.3,8.7-8.1c6.4-6,12.6-12.3,18.5-18.8
		c6-6.6,11.3-13.7,16-21.4c3.9-6.8,6.7-14,8.5-21.4c1.8-7.4,2-15.1,0.6-23.1c-0.3-1.7-1.2-3-2.9-3.9c-1.7-0.9-3.2-1-4.6-0.4
		c-7.8,2-14.4,5.5-19.8,10.5c-5.4,5-10.2,10.8-14.4,17.6c-4.2,6.7-7.7,13.7-10.6,21c-2.9,7.3-5.8,14.3-8.5,21.2l-11.2,27
		c-12.2,10-24.9,19.4-38.1,28.3c-13.2,8.8-26.9,16.7-41,23.5c-6.9,3.4-14.3,6.3-22.1,8.6c-7.8,2.3-15.6,3.6-23.5,4.1
		c-7.9,0.4-15.7-0.4-23.3-2.6c-7.6-2.1-14.7-6.1-21-11.8c-5.8-5.1-10.3-11-13.5-17.6c-3.2-6.6-5.5-13.6-6.9-21
		c-1.4-7.4-2.1-15-2.1-22.7c0-7.7,0.4-15.1,1.2-22.3c1.9-18.8,5.9-37,11.9-54.4c6-17.4,13.4-34.4,22.3-50.9
		c22.5-8.6,45-17.1,67.5-25.5c22.5-8.4,45-17.2,67.5-26.3c32.8-13.1,65.3-27.3,97.5-42.4c13.9-6.6,27.4-13.5,40.6-20.8
		c13.2-7.3,25.8-15.8,37.7-25.5c9.3-7.3,18-15.4,26.1-24.4c49.7,54.8,80,127.5,80,207.2C950.6,610.7,812,749.2,641.7,749.2z
		 M711.1,517.4c1.7-4.3,3.4-8.6,5.2-12.8c1.8-4.3,3.7-8.6,5.6-12.8c3.1-7.1,6.7-14.1,11-21c4.3-6.8,9.9-12.1,16.9-15.8l0.4,0.4
		c-0.3,7.4-2.2,14.4-5.6,21c-3.5,6.6-7.6,12.7-12.3,18.4c-3.3,4-6.7,7.9-10.2,11.6C718.7,510,715,513.7,711.1,517.4z"/>
</g>
</svg>
