<?xml version="1.0" encoding="utf-8"?>
<!-- Generator: Adobe Illustrator 23.0.6, SVG Export Plug-In . SVG Version: 6.00 Build 0)  -->
<svg version="1.1" id="Layer_1" xmlns="http://www.w3.org/2000/svg" xmlns:xlink="http://www.w3.org/1999/xlink" x="0px" y="0px"
	 viewBox="0 0 245 265.3" style="enable-background:new 0 0 245 265.3;" xml:space="preserve">
<style type="text/css">
	.st0{fill:#e7a649;}
</style>
<g>
	<polygon class="st0" points="245,253.8 170,253.8 170,121.1 158.5,121.1 158.5,265.3 170,265.3 170,265.3 245,265.3 	"/>
	<path class="st0" d="M244.5,121.1h-5.9h-5.5h-51.5v11.5h51.6c-2.7,42.3-37.9,75.8-80.9,75.8c-44.8,0-81.1-36.3-81.1-81.1
		c0-44.8,36.3-81.1,81.1-81.1c6.1,0,12,0.7,17.8,2V36.6c-5.7-1.1-11.5-1.7-17.4-1.7c-50.9,0-92.1,41.3-92.1,92.1
		c0,50.9,41.3,92.1,92.1,92.1c50.9,0,92.1-41.2,92.1-92.1C244.7,125,244.6,123.1,244.5,121.1"/>
	<polygon class="st0" points="85.5,121.1 85.5,132.7 135.4,132.7 135.4,253.8 60.4,253.8 60.4,265.3 135.4,265.3 135.4,265.3 
		146.9,265.3 146.9,265.3 146.9,253.8 146.9,132.7 146.9,121.1 135.4,121.1 	"/>
	<polygon class="st0" points="12.9,0 0,0 38.8,132.7 51.8,132.7 48.4,121.1 46.8,115.7 16.3,11.5 170,11.5 170,0 	"/>
</g>
</svg>
