<?xml version="1.0" encoding="utf-8"?>
<!-- Generator: Adobe Illustrator 23.0.6, SVG Export Plug-In . SVG Version: 6.00 Build 0)  -->
<svg version="1.1" id="Layer_1" xmlns="http://www.w3.org/2000/svg" xmlns:xlink="http://www.w3.org/1999/xlink" x="0px" y="0px"
	 viewBox="0 0 867.1 98" style="enable-background:new 0 0 867.1 98;" xml:space="preserve">
<style type="text/css">
	.st0{fill:#e7a649;}
</style>
<g>
	<polygon class="st0" points="-1.8,96 -1.8,0.4 11.8,0.4 11.8,83.7 56.8,83.7 56.8,96 	"/>
	<path class="st0" d="M177.4,12.6c-19.9,0-35.7,15.7-35.7,36.4s15.8,36.4,35.7,36.4c19.9,0,35.7-15.7,35.7-36.4
		S197.3,12.6,177.4,12.6 M177.4,98c-27.4,0-50-20.2-50-49c0-28.8,22.5-49,50-49c27.4,0,50,20.2,50,49C227.4,77.8,204.9,98,177.4,98"
		/>
	<path class="st0" d="M347.9,12.6c-19.9,0-35.7,15.7-35.7,36.4c0,20.7,15.8,36.4,35.7,36.4c12,0,23.1-4.2,32.9-11.2v14.6
		c-9.8,5.9-21.3,9.2-32.9,9.2c-27.4,0-50-20.2-50-49c0-28.8,22.5-49,50-49c11.9,0,22.7,3.5,33,9.5v14.6
		C370.8,17.4,358.3,12.6,347.9,12.6"/>
	<polygon class="st0" points="528.9,96 484.2,47.5 484.2,96 470.5,96 470.5,0.4 484.2,0.4 484.2,37.4 523.3,0.4 541.8,0.4 495.7,42 
		547.5,96 	"/>
	<polygon class="st0" points="641.2,96 641.2,0 701.9,0 701.9,12.4 654.9,12.4 654.9,38.3 691.6,38.3 691.6,50.7 654.9,50.7 
		654.9,83.6 701.9,83.6 701.9,96 	"/>
	<path class="st0" d="M835.5,97.7c-19.6,0-29.1-9.2-35.8-23.7l12-7.6c3.1,8.8,8.8,18.8,23,18.8c8.4,0,16.2-6,16.2-14.7
		c0-20.4-45.1-16-45.1-44.5c0-15.5,12.2-26,28-26c11.8,0,22.3,5.2,29.4,16.1l-10.5,8.4c-4.2-7.8-11.2-11.8-18.6-11.8
		c-10.8,0-13.9,7.1-13.9,11.9c0,16.7,45.1,14.1,45.1,44.4C865.3,86,851.2,97.7,835.5,97.7"/>
</g>
</svg>
